# xmcd
#
# Track frame offsets:
#	150
#	16075
#	37108
#	51968
#	73105
#	89783
#	105456
#
# Disc length: 1578 seconds
#
# Revision: 1
# Processed by: cddbd v1.5.2PL0 Copyright (c) Steve Scherf et al.
# Submitted via: audiograbber 1.83.01
#
DISCID=5c062807
DTITLE=Junk Vibration - H.O.T
DYEAR=1900
DGENRE=
TTITLE0=Wollt ihr
TTITLE1=Into the sun
TTITLE2=Hopp oder Tropp
TTITLE3=Move on (to the music)
TTITLE4=Move on (Remix)
TTITLE5=Funky Junky
TTITLE6=Right or wrong
EXTD=
EXTT0=
EXTT1=
EXTT2=
EXTT3=
EXTT4=
EXTT5=
EXTT6=
PLAYORDER=
